<svg xmlns="http://www.w3.org/2000/svg" viewBox="0 0 128 128" role="img" aria-label="Sticker Forge icon">
  <defs>
    <linearGradient id="g" x1="0" y1="0" x2="1" y2="1">
      <stop offset="0%" stop-color="#ffe26d"/>
      <stop offset="100%" stop-color="#ff6b57"/>
    </linearGradient>
  </defs>
  <rect x="10" y="10" width="108" height="108" rx="30" fill="url(#g)"/>
  <path d="M91 34c11 0 19 8 19 19v22c0 11-8 19-19 19H69L49 112l5-18H37c-11 0-19-8-19-19V53c0-11 8-19 19-19h54z" fill="#fff"/>
  <circle cx="50" cy="61" r="7" fill="#12233d"/>
  <circle cx="78" cy="61" r="7" fill="#12233d"/>
  <path d="M44 82c6 6 12 8 20 8s14-2 20-8" fill="none" stroke="#12233d" stroke-width="6" stroke-linecap="round"/>
</svg>
